<svg xmlns="http://www.w3.org/2000/svg" width="495" height="200" viewBox="0 0 495 200" role="img" aria-label="Top languages"><defs><style>
.sans{font-family:Inter,'Segoe UI','Helvetica Neue',Arial,sans-serif}
.mono{font-family:'JetBrains Mono','SFMono-Regular',Consolas,'Liberation Mono',Menlo,monospace}
</style><pattern id="dots" width="24" height="24" patternUnits="userSpaceOnUse"><circle cx="2" cy="2" r="1.3" fill="#2C2B3B"/></pattern></defs><rect width="495" height="200" rx="16" fill="#12111A"/><rect width="495" height="200" rx="16" fill="url(#dots)"/><rect x="0.75" y="0.75" width="493.5" height="198.5" rx="16" fill="none" stroke="#3A3950" stroke-width="1.5"/><rect x="20" y="18" width="30" height="30" rx="8" fill="#FF6D5A" fill-opacity="0.16" stroke="#FF6D5A" stroke-opacity="0.6"/><text class="mono" x="35" y="38" text-anchor="middle" font-size="12" font-weight="700" fill="#FF6D5A">02</text><text class="sans" x="62" y="39" font-size="17" font-weight="700" fill="#F5F5F7">Top Languages</text><line x1="20" y1="62" x2="475" y2="62" stroke="#2C2B3B"/><clipPath id="bar"><rect x="24" y="76" width="447" height="10" rx="5"/></clipPath><g clip-path="url(#bar)"><rect x="24.0" y="76" width="243.0" height="10" fill="#FF6D5A"/><rect x="267.0" y="76" width="73.1" height="10" fill="#9B6BFF"/><rect x="340.0" y="76" width="37.8" height="10" fill="#29C6A8"/><rect x="377.8" y="76" width="36.6" height="10" fill="#EA4B71"/><rect x="414.4" y="76" width="32.6" height="10" fill="#F5A524"/><rect x="447.0" y="76" width="24.0" height="10" fill="#4C9BFF"/></g><circle cx="28" cy="112" r="4" fill="#FF6D5A"/><text class="sans" x="42" y="116" font-size="13" fill="#C9C7D9">HTML</text><text class="mono" x="229" y="116" text-anchor="end" font-size="13" font-weight="700" fill="#F5F5F7">54.4%</text><circle cx="263" cy="112" r="4" fill="#9B6BFF"/><text class="sans" x="277" y="116" font-size="13" fill="#C9C7D9">CSS</text><text class="mono" x="464" y="116" text-anchor="end" font-size="13" font-weight="700" fill="#F5F5F7">16.3%</text><circle cx="28" cy="140" r="4" fill="#29C6A8"/><text class="sans" x="42" y="144" font-size="13" fill="#C9C7D9">Java</text><text class="mono" x="229" y="144" text-anchor="end" font-size="13" font-weight="700" fill="#F5F5F7">8.4%</text><circle cx="263" cy="140" r="4" fill="#EA4B71"/><text class="sans" x="277" y="144" font-size="13" fill="#C9C7D9">SCSS</text><text class="mono" x="464" y="144" text-anchor="end" font-size="13" font-weight="700" fill="#F5F5F7">8.2%</text><circle cx="28" cy="168" r="4" fill="#F5A524"/><text class="sans" x="42" y="172" font-size="13" fill="#C9C7D9">JavaScript</text><text class="mono" x="229" y="172" text-anchor="end" font-size="13" font-weight="700" fill="#F5F5F7">7.3%</text><circle cx="263" cy="168" r="4" fill="#4C9BFF"/><text class="sans" x="277" y="172" font-size="13" fill="#C9C7D9">PHP</text><text class="mono" x="464" y="172" text-anchor="end" font-size="13" font-weight="700" fill="#F5F5F7">5.4%</text></svg>